<svg xmlns="http://www.w3.org/2000/svg" width="600" height="300" viewBox="0 0 600 300"><path d="M599.96 268.456v-15.788c-4.358 0-7.894-3.536-7.894-7.896 0-4.358 3.535-7.894 7.895-7.894V221.09c-4.358 0-7.894-3.536-7.894-7.896s3.535-7.894 7.895-7.894v-15.79c-4.358 0-7.894-3.534-7.894-7.895s3.535-7.896 7.895-7.896v-15.79c-4.358 0-7.894-3.535-7.894-7.895 0-4.36 3.535-7.895 7.895-7.895v-15.79c-4.358 0-7.894-3.535-7.894-7.895 0-4.36 3.535-7.894 7.895-7.894V94.77c-4.358 0-7.894-3.534-7.894-7.894s3.535-7.895 7.895-7.895V63.19c-4.358 0-7.894-3.534-7.894-7.894S595.6 47.4 599.96 47.4V31.616c-17.438 0-31.577-14.14-31.577-31.58H31.54c0 17.44-14.14 31.58-31.58 31.58v15.79c4.36 0 7.895 3.534 7.895 7.894S4.32 63.193-.04 63.193v15.79c4.36 0 7.895 3.535 7.895 7.895 0 4.36-3.535 7.894-7.895 7.894v15.79c4.36 0 7.895 3.535 7.895 7.894 0 4.36-3.535 7.896-7.895 7.896v15.79c4.36 0 7.895 3.534 7.895 7.894s-3.535 7.896-7.895 7.896v15.788c4.36 0 7.895 3.535 7.895 7.896s-3.535 7.895-7.895 7.895v15.79c4.36 0 7.895 3.533 7.895 7.894s-3.535 7.896-7.895 7.896v15.788c4.36 0 7.895 3.536 7.895 7.895 0 4.36-3.535 7.896-7.895 7.896v15.79c17.44 0 31.58 14.138 31.58 31.577h536.843c0-17.442 14.138-31.58 31.578-31.58z" fill="#c00"/><path d="M542.468 47.403H57.45c-5.58 0-10.122 4.54-10.122 10.123v185.05c0 5.58 4.54 10.122 10.123 10.122H542.47c5.582 0 10.123-4.54 10.123-10.122V57.526c0-5.582-4.54-10.123-10.122-10.123zm-440.784 200.84H57.45c-3.124 0-5.666-2.542-5.666-5.667V57.526c0-3.125 2.542-5.667 5.667-5.667h44.233V248.24zm4.456-196.384h387.64V248.24H106.14V51.86zm441.995 190.716c0 3.125-2.542 5.666-5.667 5.666h-44.23V51.86h44.23c3.125 0 5.667 2.54 5.667 5.666v185.05z" opacity=".2" fill="#000100"/><g fill="#000100"><path d="M520.94 96.257c.962 0 1.416-.454 1.416-1.363v-2.166h1.978v2.113c0 .91.455 1.364 1.418 1.364h3.583c.963 0 1.417-.455 1.417-1.363v-.535c0-.908-.454-1.363-1.417-1.363h-2.675v-2.086h2.567c2.326 0 3.477 1.15 3.477 3.476v.534c0 2.327-1.15 3.476-3.477 3.476h-2.94c-1.605 0-2.407-.562-2.78-1.55-.32 1.123-1.044 1.604-2.408 1.604h-3.96c-2.324 0-3.474-1.15-3.474-3.477v-.696c0-2.298 1.123-3.422 3.423-3.422h2.967v2.086h-3.022c-.96 0-1.416.454-1.416 1.417v.536c0 .963.454 1.417 1.415 1.417h3.904zM522.276 104.68h-1.926v-4.653h1.926v4.653zM513.826 108.85v-2.03h15.376v-1.767h1.657c.106 1.177.453 1.71 1.335 2.38l.43.32v1.096h-18.8zM519.28 110.856l13.264 4.278v2.647h-13.316v1.312h-1.87v-1.31h-3.53v-1.926h3.53v-5h1.923zm-.052 5h9.92l-9.92-3.13v3.13zM513.826 123.422v-2.032h15.376v-1.765h1.657c.106 1.176.453 1.71 1.335 2.38l.43.32v1.097h-18.8zM517.14 133.26c-2.324 0-3.474-1.148-3.474-3.422v-.534c0-2.247 1.123-3.37 3.423-3.37h3.234v2.086h-3.29c-.96 0-1.416.455-1.416 1.364v.375c0 .907.455 1.362 1.416 1.362h5.08c1.017 0 1.498-.374 1.498-1.23 0-.694-.267-1.283-1.068-2.06v-1.79h10v6.952h-1.98v-4.974l-5.855-.053c.508.642.882 1.39.882 2.406 0 1.71-1.15 2.888-3.075 2.888h-5.376zM517.034 140.64h4.76c-.347-.64-.56-1.39-.56-2.22v-.08c0-1.897 1.256-3.02 3.1-3.02h4.895c2.325 0 3.476 1.15 3.476 3.476v.48c0 2.327-1.15 3.477-3.477 3.477H517.14c-2.325 0-3.475-1.15-3.475-3.476v-.508c0-2.354 1.017-3.423 3.368-3.423h2.38v2.058h-2.38c-.96 0-1.416.455-1.416 1.364v.507c-.002.91.453 1.363 1.414 1.363zm12.3 0c.964 0 1.418-.454 1.418-1.363v-.508c0-.91-.454-1.365-1.417-1.365h-4.6c-1.07 0-1.523.508-1.523 1.417 0 .642.187 1.39.4 1.818h5.723zM524.47 149.25c.8.64 1.255.828 2.03.828h2.835c.963 0 1.417-.455 1.417-1.364v-.427c0-.91-.454-1.364-1.417-1.364h-3.53v-2.086h3.423c2.326 0 3.477 1.15 3.477 3.423v.535c0 2.273-1.15 3.423-3.477 3.423h-2.406c-1.283 0-2.245-.268-3.636-1.39l-3.798-3.023c-.882-.722-1.363-.882-2.486-.882h-1.097v5.295h-1.98v-7.435h3.21c1.338 0 2.246.32 3.637 1.444l3.797 3.022zM524.334 156.36c.35.642.59 1.364.59 2.22v.133c0 1.9-1.258 3.02-3.103 3.02h-4.68c-2.325 0-3.475-1.147-3.475-3.476v-.533c0-2.328 1.15-3.477 3.475-3.477h12.087c2.326 0 3.477 1.148 3.477 3.477v.562c0 2.326-1.044 3.368-3.37 3.368h-2.593v-2.06h2.595c.963 0 1.417-.453 1.417-1.363v-.506c0-.91-.454-1.364-1.417-1.364h-5zm-7.3 0c-.96 0-1.416.455-1.416 1.364v.562c0 .91.455 1.362 1.416 1.362h4.386c1.07 0 1.524-.48 1.524-1.442 0-.643-.188-1.42-.4-1.846h-5.51zM517.14 171.2c-2.324 0-3.474-1.15-3.474-3.423v-.535c0-2.246 1.123-3.368 3.423-3.368h3.234v2.084h-3.29c-.96 0-1.416.455-1.416 1.364v.374c0 .91.455 1.364 1.416 1.364h5.08c1.017 0 1.498-.374 1.498-1.23 0-.695-.267-1.283-1.068-2.06v-1.79h10v6.95h-1.98v-4.974l-5.855-.052c.508.642.882 1.39.882 2.406 0 1.71-1.15 2.888-3.075 2.888h-5.376zM520.94 178.552c.962 0 1.416-.454 1.416-1.364v-2.165h1.978v2.11c0 .91.455 1.364 1.418 1.364h3.583c.963 0 1.417-.454 1.417-1.364v-.532c0-.91-.454-1.363-1.417-1.363h-2.675v-2.087h2.567c2.326 0 3.477 1.15 3.477 3.477v.535c0 2.326-1.15 3.476-3.477 3.476h-2.94c-1.605 0-2.407-.562-2.78-1.552-.32 1.125-1.044 1.605-2.408 1.605h-3.96c-2.324 0-3.474-1.15-3.474-3.476v-.694c0-2.3 1.123-3.423 3.423-3.423h2.967v2.085h-3.022c-.96 0-1.416.455-1.416 1.42v.53c0 .966.454 1.42 1.415 1.42h3.904zM517.14 190.182c-2.324 0-3.474-1.148-3.474-3.423v-.536c0-2.245 1.123-3.368 3.423-3.368h3.234v2.085h-3.29c-.96 0-1.416.455-1.416 1.365v.374c0 .908.455 1.363 1.416 1.363h5.08c1.017 0 1.498-.374 1.498-1.23 0-.695-.267-1.282-1.068-2.06v-1.79h10v6.95h-1.98v-4.973l-5.855-.053c.508.643.882 1.39.882 2.407 0 1.71-1.15 2.887-3.075 2.887h-5.376zM532.704 196.225c0 2.325-1.15 3.475-3.477 3.475h-2.887c-1.604 0-2.406-.562-2.78-1.55-.322 1.123-1.044 1.604-2.407 1.604h-4.013c-2.325 0-3.475-1.15-3.475-3.477v-.533c0-2.328 1.15-3.477 3.475-3.477h4.013c1.363 0 2.085.48 2.406 1.604.374-.987 1.176-1.55 2.78-1.55h2.887c2.326 0 3.477 1.15 3.477 3.477v.428zm-15.695-1.9c-.964 0-1.42.454-1.42 1.418v.533c0 .964.456 1.42 1.42 1.42h4.01c.963 0 1.416-.456 1.416-1.42v-.533c0-.964-.453-1.42-1.417-1.42h-4.01zm7.324 1.925c0 .962.455 1.417 1.418 1.417h3.61c.962 0 1.417-.455 1.417-1.417v-.48c0-.964-.456-1.417-1.42-1.417h-3.608c-.963 0-1.418.453-1.418 1.417v.48zM517.034 207.187h4.76c-.347-.643-.56-1.39-.56-2.22v-.08c0-1.897 1.256-3.022 3.1-3.022h4.895c2.325 0 3.476 1.15 3.476 3.477v.48c0 2.326-1.15 3.478-3.477 3.478H517.14c-2.325 0-3.475-1.15-3.475-3.477v-.508c0-2.354 1.017-3.422 3.368-3.422h2.38v2.058h-2.38c-.96 0-1.416.456-1.416 1.365v.508c-.002.908.453 1.364 1.414 1.364zm12.3 0c.964 0 1.418-.455 1.418-1.364v-.508c0-.91-.454-1.364-1.417-1.364h-4.6c-1.07 0-1.523.51-1.523 1.418 0 .642.187 1.39.4 1.82h5.723z" opacity=".2"/></g><g fill="#000100"><path d="M71.36 96.552l14.732 2.38v3.315H67.375v-2.086h15.48l-15.48-2.565v-2.193l15.48-2.567h-15.48v-2.032h18.717v3.37l-14.733 2.38zM67.375 112.487v-2.113l3.128-.455v-3.45l-3.128-.428v-2.06l18.77 2.89v2.726l-18.77 2.89zm5.054-5.748v2.914l10.347-1.444-10.348-1.47zM86.092 114.224v3.53c0 2.808-1.336 4.144-4.144 4.144H71.52c-2.807 0-4.144-1.336-4.144-4.144v-3.53h18.716zm-16.765 2.138v1.284c0 1.445.722 2.113 2.166 2.113h10.48c1.445 0 2.167-.67 2.167-2.114v-1.284H69.327zM86.092 130.025h-1.978v-3.743H77.91v3.61h-1.952v-3.61h-6.604v3.797h-1.98v-5.937h18.718v5.882zM67.375 137.196v-2.14h18.717v2.14H67.375zM86.092 145.564v2.032H67.375v-2.674L82 141.554H67.376v-2.032h18.717v2.94l-13.557 3.103h13.557zM74.007 160.024H70.85c-2.325 0-3.475-1.148-3.475-3.475v-3.96h18.717v3.904c0 2.326-1.15 3.478-3.476 3.478h-2.754c-1.658 0-2.514-.562-2.915-1.632-.427 1.098-1.283 1.684-2.94 1.684zm-4.707-5.32v1.79c0 .963.455 1.418 1.417 1.418h3.69c1.07 0 1.578-.507 1.578-1.578v-1.63H69.3zm14.867 1.737v-1.735h-6.284v1.577c0 1.068.508 1.577 1.578 1.577h3.29c.963 0 1.417-.455 1.417-1.42zM86.092 168.125h-1.978v-3.742H77.91v3.61h-1.952v-3.61h-6.604v3.797h-1.98v-5.936h18.718v5.88zM86.092 172.35H69.354v3.53h-1.98v-5.67h18.718v2.14zM86.092 183.474h-1.978v-3.612h-6.257v3.478h-1.952v-3.478h-8.53v-2.14h18.717v5.752zM67.375 192.724v-2.113l3.128-.454v-3.448l-3.128-.43v-2.058l18.77 2.888v2.73l-18.77 2.886zm5.054-5.75v2.914l10.347-1.442-10.348-1.47zM73.418 201.733H70.69c-2.325 0-3.475-1.148-3.475-3.475v-.59c0-2.3 1.15-3.423 3.423-3.423h3.93v2.087h-4.01c-.963 0-1.417.455-1.417 1.416v.43c0 .96.456 1.416 1.418 1.416h2.807c.936 0 1.337-.32 1.792-.936l1.9-2.62c.988-1.39 1.95-1.793 3.475-1.793h2.246c2.327 0 3.476 1.15 3.476 3.478v.535c0 2.298-1.15 3.423-3.422 3.423h-3.37v-2.086h3.45c.962 0 1.417-.455 1.417-1.417v-.374c0-.964-.456-1.42-1.418-1.42H80.56c-.937 0-1.338.35-1.792.965l-1.872 2.594c-.99 1.365-1.873 1.79-3.478 1.79zM67.375 205.69h16.74v-2.81h1.977v7.756h-1.978v-2.81h-16.74v-2.137z" opacity=".2"/></g><g fill="#fff"><path d="M150.06 155.788v-8.093h15.857v27.498c0 9.646-4.768 14.415-14.415 14.415h-3.326c-9.647 0-14.415-4.77-14.415-14.415v-50.12c0-9.645 4.77-14.412 14.416-14.412h3.326c9.536 0 14.193 4.767 14.193 14.194v10.643h-8.65V124.63c0-3.992-1.884-5.876-5.875-5.876h-2.66c-3.993 0-5.877 1.884-5.877 5.877v51.004c0 3.993 1.884 5.877 5.876 5.877h2.882c3.99 0 5.876-1.883 5.876-5.876v-19.846h-7.207zM198.293 111.326v8.203H182.77v25.725h14.97v8.093h-14.97v27.388h15.745v8.205H173.9v-77.614h24.393zM213.816 188.94v-69.41h-11.643v-8.204h32.156v8.203h-11.644v69.41h-8.87zM261.937 188.94h-8.87v-77.614h8.87v77.615zM295.534 111.326h8.427v77.615h-11.087l-13.97-60.65v60.65h-8.428v-77.614h12.197l12.862 56.214v-56.214zM335.672 111.326h8.76l-12.31 77.835h-9.755l-12.307-77.834h8.98l8.315 59.318 8.317-59.318zM359.51 188.94h-8.868v-77.614h8.87v77.615zM376.585 188.94v-69.41H364.94v-8.204H397.1v8.203h-11.64v69.41h-8.873zM426.814 111.326v8.203h-15.522v25.725h14.967v8.093H411.29v27.388h15.744v8.205H402.42v-77.614h24.394zM434.354 111.326h14.637c11.642 0 17.186 5.544 17.186 17.185v43.245c0 11.643-5.544 17.187-17.185 17.187h-14.636v-77.616zm8.87 69.52h5.323c5.987 0 8.76-2.992 8.76-8.982v-43.462c0-5.987-2.772-8.982-8.76-8.982h-5.322v61.426z"/></g></svg>