<svg xmlns="http://www.w3.org/2000/svg" xmlns:xlink="http://www.w3.org/1999/xlink" width="45" height="540" viewBox="0 0 45 540"><svg width="38" height="39" viewBox="-10 -10 38 39"><title>close</title><desc>Created with Sketch.</desc><path d="M17.734 3.03L15.97 1.267 9.25 7.984 2.53 1.266.767 3.03l6.718 6.72-6.718 6.72 1.765 1.764 6.72-6.718 6.72 6.718 1.764-1.765-6.718-6.72 6.718-6.72z" fill="#777D93"/></svg><svg width="44" height="44" viewBox="-10 -10 44 44" y="39"><title>edit</title><desc>Created with Sketch.</desc><path d="M21.983 4.148L19.11 1.275C18.615.78 17.956.5 17.247.5c-.696 0-1.367.28-1.86.775l-2.43 2.44 6.582 6.624 2.44-2.444c.494-.508.76-1.17.76-1.868 0-.713-.266-1.374-.76-1.883zm-1.43 2.3l-1.013 1.02-3.722-3.75 1-1.005c.114-.115.266-.178.43-.178.165 0 .317.063.43.178l2.874 2.885c.114.115.165.267.165.433 0 .154-.05.32-.165.42zm-11.33 11.38l-4.178 1.41-.962-.953L5.49 14.09l7.746-7.78-1.43-1.437-8.077 8.123-3.357 9.966 9.937-3.356 8.09-8.123-1.43-1.436-7.748 7.78zM7.02 16.3c.19.204.456.306.71.306.265 0 .518-.102.72-.305l7.368-7.395-1.43-1.437-7.367 7.398c-.2.204-.3.458-.3.725 0 .254.1.52.303.71z" fill="#777D93"/></svg><svg width="43" height="38" viewBox="-10 -10 43 38" y="83"><title>email</title><desc>Created with Sketch.</desc><path d="M20.346 14.597l-3.994-5.105-1.783 1.336 3.853 4.922H4.147l4.063-5.203L6.427 9.21l-4.215 5.4V6.16L0 4.246V18h22.558V4.683L20.346 6.58v8.017zM0 0v1.898l9.496 7.34c.58.437 1.327.648 2.073.648.76 0 1.504-.21 2.084-.647l8.902-6.908V0H0zm12.343 7.467c-.4.296-1.133.296-1.534 0L3.88 2.25h15.384L12.34 7.467z" fill="#777D93"/></svg><svg width="39" height="42" viewBox="-10 -10 39 42" y="121"><title>files</title><desc>Created with Sketch.</desc><path d="M3.42 3.356V22h9.357L19 15.86V3.355H3.42zM17.1 15.09l-5.118 5.046H5.32V5.22H17.1v9.87zm-5.32-.175h3.8V13.05h-5.7v5.594h1.9v-3.73zM15.58 0H0v18.644h1.9V1.864h13.68V0z" fill="#777D93"/></svg><svg width="33" height="38" viewBox="-10 -10 33 38" y="163"><title>location-blue</title><desc>Created with Sketch.</desc><path d="M6.5 0C2.918 0 0 3.113 0 6.9c0 5.177 5.484 10.56 5.484 10.56.74.694 1.182.75 1.976 0 0 0 5.54-5.382 5.54-10.557C13 3.113 10.082 0 6.5 0zm0 9.714c-1.7 0-3.065-1.388-3.065-3.113C3.435 4.88 4.8 3.47 6.5 3.47c1.7 0 3.084 1.408 3.084 3.13C9.584 8.33 8.2 9.717 6.5 9.717z" fill="#659CDC"/></svg><svg width="32" height="36" viewBox="-10 -10 32 36" y="201"><title>lock-dark</title><desc>Created with Sketch.</desc><path d="M11 7h-1V4c0-2.204-1.796-4-4-4-2.204 0-4 1.796-4 4v3H1c-.556 0-1 .444-1 1v7c0 .556.444 1 1 1h10c.556 0 1-.444 1-1V8c0-.556-.444-1-1-1zM4 4c0-1.11.89-2 2-2 1.11 0 2 .89 2 2v3H4V4z" fill="#959698"/></svg><svg width="37" height="32" viewBox="-10 -10 37 32" y="237"><title>menu</title><path d="M0 0v2h17V0H0zm0 5v2h17V5H0zm0 5v2h17v-2H0z" fill="#fff"/></svg><svg width="33" height="22" viewBox="-10 -10 33 22" y="269"><title>minus</title><desc>Created with Sketch.</desc><path d="M12.103 1.424V0H0v1.424h12.103z" fill="#E67E7E"/></svg><svg width="31" height="36" viewBox="-10 -10 31 36" y="291"><title>navigateleft</title><desc>Created with Sketch.</desc><path d="M8.005 16.005c.092 0 .166-.037.24-.093l2.334-2.333c.126-.13.126-.355 0-.485l-5.114-5.09 5.11-5.094c.13-.13.13-.35 0-.48L8.246.097c-.13-.13-.35-.13-.48 0L.097 7.764c-.13.13-.13.352 0 .48l7.666 7.668c.074.056.148.093.24.093z" fill-opacity=".8" fill="#fff"/></svg><svg width="45" height="23" viewBox="-10 -10 45 23" y="327"><title>plus-2</title><desc>Created with Sketch.</desc><path d="M25 0H0v3h25V0z" opacity=".701" fill="#767B83"/></svg><svg width="45" height="45" viewBox="-10 -10 45 45" y="350"><title>plus</title><desc>Created with Sketch.</desc><path d="M25 11.047H13.953V0h-2.906v11.047H0v2.906h11.047V25h2.906V13.953H25v-2.906z" opacity=".701" fill="#767B83"/></svg><svg width="32" height="32" viewBox="-10 -10 32 32" y="395"><title>plus</title><desc>Created with Sketch.</desc><path d="M12 5.302H6.698V0H5.302v5.302H0v1.396h5.302V12h1.396V6.698H12V5.302z" fill="#767B83"/></svg><svg width="39" height="39" viewBox="-10 -10 39 39" y="427"><title>search</title><desc>Created with Sketch.</desc><path d="M18.024 16.782l-4.626-4.626c.978-1.253 1.527-2.79 1.527-4.418 0-1.923-.747-3.725-2.11-5.077C11.465 1.31 9.66.565 7.738.565c-1.912 0-3.714.748-5.077 2.1C1.31 4.01.565 5.814.565 7.737c0 1.923.748 3.726 2.1 5.077 1.362 1.352 3.164 2.1 5.076 2.1 1.626 0 3.164-.54 4.417-1.517l4.626 4.626 1.242-1.242zm-14.132-5.21C2.87 10.552 2.31 9.19 2.31 7.74c0-1.45.56-2.813 1.593-3.846C4.925 2.87 6.288 2.31 7.738 2.31c1.45 0 2.814.56 3.846 1.582 1.022 1.033 1.583 2.396 1.583 3.846 0 1.45-.56 2.814-1.583 3.835-1.032 1.033-2.395 1.594-3.846 1.594-1.45 0-2.813-.56-3.846-1.594z" fill="#777D93"/></svg><svg width="34" height="32" viewBox="-10 -10 34 32" y="466"><title>check</title><desc>Created with Sketch.</desc><path d="M13.923 2.548c.113-.113.113-.308 0-.42L11.88.084c-.112-.113-.306-.113-.42 0L5.254 6.307 2.548 3.585c-.113-.113-.308-.113-.42 0L.084 5.627c-.113.113-.113.308 0 .42l4.958 4.96c.065.048.13.08.21.08.082 0 .147-.032.212-.08l8.458-8.46z" fill="#fff"/></svg><svg width="40" height="42" viewBox="-10 -10 40 42" y="498"><title>trash</title><desc>Created with Sketch.</desc><path d="M15.227 19.925H3.773V7.472H1.727V22h15.546V7.472h-2.046v12.453zm-9-12.453V17.85h2.046V7.47H6.227zm4.5 0V17.85h2.046V7.47h-2.046zm3.58-3.736L13.067 0H5.933l-1.24 3.736H.5V5.81h18V3.737h-4.193zm-7.453 0l.55-1.66h4.193l.55 1.66H6.853z" fill="#777D93"/></svg></svg>